M48
; DRILL file {KiCad (6.0.5)} date Sun Sep  7 14:18:49 2025
; FORMAT={-:-/ absolute / metric / decimal}
; #@! TF.CreationDate,2025-09-07T14:18:49-04:00
; #@! TF.GenerationSoftware,Kicad,Pcbnew,(6.0.5)
; #@! TF.FileFunction,Plated,1,2,PTH
FMAT,2
METRIC
; #@! TA.AperFunction,Plated,PTH,ComponentDrill
T1C0.762
; #@! TA.AperFunction,Plated,PTH,ComponentDrill
T2C0.950
%
G90
G05
T1
X130.008Y-77.673
X130.008Y-80.213
X130.008Y-82.754
X130.008Y-85.293
X130.008Y-87.834
X130.008Y-90.373
X130.008Y-92.913
X132.08Y-77.724
X132.08Y-82.804
X132.08Y-85.344
X132.08Y-87.884
X132.08Y-90.424
X132.08Y-92.964
X143.256Y-82.804
X143.256Y-85.344
X143.256Y-87.884
X143.256Y-90.424
X143.256Y-92.964
X145.248Y-77.673
X145.248Y-80.213
X145.248Y-82.754
X145.248Y-85.293
X145.248Y-87.834
X145.248Y-90.373
X145.248Y-92.913
T2
X130.108Y-104.856
X132.608Y-104.856
X135.108Y-104.856
X137.608Y-104.856
X141.05Y-99.36
X143.55Y-99.36
X143.55Y-102.108
X146.05Y-99.36
X146.05Y-102.108
T0
M30
