%TF.GenerationSoftware,KiCad,Pcbnew,(6.0.5)*%
%TF.CreationDate,2025-09-07T14:18:53-04:00*%
%TF.ProjectId,inf_mirror_board_rev1,696e665f-6d69-4727-926f-725f626f6172,rev?*%
%TF.SameCoordinates,Original*%
%TF.FileFunction,Legend,Bot*%
%TF.FilePolarity,Positive*%
%FSLAX46Y46*%
G04 Gerber Fmt 4.6, Leading zero omitted, Abs format (unit mm)*
G04 Created by KiCad (PCBNEW (6.0.5)) date 2025-09-07 14:18:53*
%MOMM*%
%LPD*%
G01*
G04 APERTURE LIST*
%ADD10C,0.130000*%
%ADD11C,0.150000*%
G04 APERTURE END LIST*
D10*
X143262285Y-79864000D02*
X143338476Y-79825904D01*
X143452761Y-79825904D01*
X143567047Y-79864000D01*
X143643238Y-79940190D01*
X143681333Y-80016380D01*
X143719428Y-80168761D01*
X143719428Y-80283047D01*
X143681333Y-80435428D01*
X143643238Y-80511619D01*
X143567047Y-80587809D01*
X143452761Y-80625904D01*
X143376571Y-80625904D01*
X143262285Y-80587809D01*
X143224190Y-80549714D01*
X143224190Y-80283047D01*
X143376571Y-80283047D01*
X142881333Y-80092571D02*
X142881333Y-80625904D01*
X142881333Y-80168761D02*
X142843238Y-80130666D01*
X142767047Y-80092571D01*
X142652761Y-80092571D01*
X142576571Y-80130666D01*
X142538476Y-80206857D01*
X142538476Y-80625904D01*
X141814666Y-80625904D02*
X141814666Y-79825904D01*
X141814666Y-80587809D02*
X141890857Y-80625904D01*
X142043238Y-80625904D01*
X142119428Y-80587809D01*
X142157523Y-80549714D01*
X142195619Y-80473523D01*
X142195619Y-80244952D01*
X142157523Y-80168761D01*
X142119428Y-80130666D01*
X142043238Y-80092571D01*
X141890857Y-80092571D01*
X141814666Y-80130666D01*
D11*
X143144857Y-77176380D02*
X143621047Y-77176380D01*
X143668666Y-77652571D01*
X143621047Y-77604952D01*
X143525809Y-77557333D01*
X143287714Y-77557333D01*
X143192476Y-77604952D01*
X143144857Y-77652571D01*
X143097238Y-77747809D01*
X143097238Y-77985904D01*
X143144857Y-78081142D01*
X143192476Y-78128761D01*
X143287714Y-78176380D01*
X143525809Y-78176380D01*
X143621047Y-78128761D01*
X143668666Y-78081142D01*
X142763904Y-77509714D02*
X142525809Y-78176380D01*
X142287714Y-77509714D01*
D10*
X135318380Y-90747809D02*
X135204095Y-90785904D01*
X135013619Y-90785904D01*
X134937428Y-90747809D01*
X134899333Y-90709714D01*
X134861238Y-90633523D01*
X134861238Y-90557333D01*
X134899333Y-90481142D01*
X134937428Y-90443047D01*
X135013619Y-90404952D01*
X135166000Y-90366857D01*
X135242190Y-90328761D01*
X135280285Y-90290666D01*
X135318380Y-90214476D01*
X135318380Y-90138285D01*
X135280285Y-90062095D01*
X135242190Y-90024000D01*
X135166000Y-89985904D01*
X134975523Y-89985904D01*
X134861238Y-90024000D01*
X134061238Y-90709714D02*
X134099333Y-90747809D01*
X134213619Y-90785904D01*
X134289809Y-90785904D01*
X134404095Y-90747809D01*
X134480285Y-90671619D01*
X134518380Y-90595428D01*
X134556476Y-90443047D01*
X134556476Y-90328761D01*
X134518380Y-90176380D01*
X134480285Y-90100190D01*
X134404095Y-90024000D01*
X134289809Y-89985904D01*
X134213619Y-89985904D01*
X134099333Y-90024000D01*
X134061238Y-90062095D01*
X133337428Y-90785904D02*
X133718380Y-90785904D01*
X133718380Y-89985904D01*
X135337428Y-88207809D02*
X135223142Y-88245904D01*
X135032666Y-88245904D01*
X134956476Y-88207809D01*
X134918380Y-88169714D01*
X134880285Y-88093523D01*
X134880285Y-88017333D01*
X134918380Y-87941142D01*
X134956476Y-87903047D01*
X135032666Y-87864952D01*
X135185047Y-87826857D01*
X135261238Y-87788761D01*
X135299333Y-87750666D01*
X135337428Y-87674476D01*
X135337428Y-87598285D01*
X135299333Y-87522095D01*
X135261238Y-87484000D01*
X135185047Y-87445904D01*
X134994571Y-87445904D01*
X134880285Y-87484000D01*
X134537428Y-88245904D02*
X134537428Y-87445904D01*
X134346952Y-87445904D01*
X134232666Y-87484000D01*
X134156476Y-87560190D01*
X134118380Y-87636380D01*
X134080285Y-87788761D01*
X134080285Y-87903047D01*
X134118380Y-88055428D01*
X134156476Y-88131619D01*
X134232666Y-88207809D01*
X134346952Y-88245904D01*
X134537428Y-88245904D01*
X133775523Y-88017333D02*
X133394571Y-88017333D01*
X133851714Y-88245904D02*
X133585047Y-87445904D01*
X133318380Y-88245904D01*
D11*
X144272000Y-76708000D02*
X146304000Y-76708000D01*
X146304000Y-76708000D02*
X146304000Y-93980000D01*
X146304000Y-93980000D02*
X144272000Y-93980000D01*
X144272000Y-93980000D02*
X144272000Y-76708000D01*
X131064000Y-93980000D02*
X129032000Y-93980000D01*
X129032000Y-93980000D02*
X129032000Y-76708000D01*
X129032000Y-76708000D02*
X131064000Y-76708000D01*
X131064000Y-76708000D02*
X131064000Y-93980000D01*
D10*
X133102285Y-102216000D02*
X133178476Y-102177904D01*
X133292761Y-102177904D01*
X133407047Y-102216000D01*
X133483238Y-102292190D01*
X133521333Y-102368380D01*
X133559428Y-102520761D01*
X133559428Y-102635047D01*
X133521333Y-102787428D01*
X133483238Y-102863619D01*
X133407047Y-102939809D01*
X133292761Y-102977904D01*
X133216571Y-102977904D01*
X133102285Y-102939809D01*
X133064190Y-102901714D01*
X133064190Y-102635047D01*
X133216571Y-102635047D01*
X132721333Y-102444571D02*
X132721333Y-102977904D01*
X132721333Y-102520761D02*
X132683238Y-102482666D01*
X132607047Y-102444571D01*
X132492761Y-102444571D01*
X132416571Y-102482666D01*
X132378476Y-102558857D01*
X132378476Y-102977904D01*
X131654666Y-102977904D02*
X131654666Y-102177904D01*
X131654666Y-102939809D02*
X131730857Y-102977904D01*
X131883238Y-102977904D01*
X131959428Y-102939809D01*
X131997523Y-102901714D01*
X132035619Y-102825523D01*
X132035619Y-102596952D01*
X131997523Y-102520761D01*
X131959428Y-102482666D01*
X131883238Y-102444571D01*
X131730857Y-102444571D01*
X131654666Y-102482666D01*
X136080380Y-102939809D02*
X135966095Y-102977904D01*
X135775619Y-102977904D01*
X135699428Y-102939809D01*
X135661333Y-102901714D01*
X135623238Y-102825523D01*
X135623238Y-102749333D01*
X135661333Y-102673142D01*
X135699428Y-102635047D01*
X135775619Y-102596952D01*
X135928000Y-102558857D01*
X136004190Y-102520761D01*
X136042285Y-102482666D01*
X136080380Y-102406476D01*
X136080380Y-102330285D01*
X136042285Y-102254095D01*
X136004190Y-102216000D01*
X135928000Y-102177904D01*
X135737523Y-102177904D01*
X135623238Y-102216000D01*
X134823238Y-102901714D02*
X134861333Y-102939809D01*
X134975619Y-102977904D01*
X135051809Y-102977904D01*
X135166095Y-102939809D01*
X135242285Y-102863619D01*
X135280380Y-102787428D01*
X135318476Y-102635047D01*
X135318476Y-102520761D01*
X135280380Y-102368380D01*
X135242285Y-102292190D01*
X135166095Y-102216000D01*
X135051809Y-102177904D01*
X134975619Y-102177904D01*
X134861333Y-102216000D01*
X134823238Y-102254095D01*
X134099428Y-102977904D02*
X134480380Y-102977904D01*
X134480380Y-102177904D01*
D11*
X146192857Y-96988380D02*
X146669047Y-96988380D01*
X146716666Y-97464571D01*
X146669047Y-97416952D01*
X146573809Y-97369333D01*
X146335714Y-97369333D01*
X146240476Y-97416952D01*
X146192857Y-97464571D01*
X146145238Y-97559809D01*
X146145238Y-97797904D01*
X146192857Y-97893142D01*
X146240476Y-97940761D01*
X146335714Y-97988380D01*
X146573809Y-97988380D01*
X146669047Y-97940761D01*
X146716666Y-97893142D01*
X145811904Y-97321714D02*
X145573809Y-97988380D01*
X145335714Y-97321714D01*
X130190857Y-102068380D02*
X130667047Y-102068380D01*
X130714666Y-102544571D01*
X130667047Y-102496952D01*
X130571809Y-102449333D01*
X130333714Y-102449333D01*
X130238476Y-102496952D01*
X130190857Y-102544571D01*
X130143238Y-102639809D01*
X130143238Y-102877904D01*
X130190857Y-102973142D01*
X130238476Y-103020761D01*
X130333714Y-103068380D01*
X130571809Y-103068380D01*
X130667047Y-103020761D01*
X130714666Y-102973142D01*
X129809904Y-102401714D02*
X129571809Y-103068380D01*
X129333714Y-102401714D01*
D10*
X138639428Y-102939809D02*
X138525142Y-102977904D01*
X138334666Y-102977904D01*
X138258476Y-102939809D01*
X138220380Y-102901714D01*
X138182285Y-102825523D01*
X138182285Y-102749333D01*
X138220380Y-102673142D01*
X138258476Y-102635047D01*
X138334666Y-102596952D01*
X138487047Y-102558857D01*
X138563238Y-102520761D01*
X138601333Y-102482666D01*
X138639428Y-102406476D01*
X138639428Y-102330285D01*
X138601333Y-102254095D01*
X138563238Y-102216000D01*
X138487047Y-102177904D01*
X138296571Y-102177904D01*
X138182285Y-102216000D01*
X137839428Y-102977904D02*
X137839428Y-102177904D01*
X137648952Y-102177904D01*
X137534666Y-102216000D01*
X137458476Y-102292190D01*
X137420380Y-102368380D01*
X137382285Y-102520761D01*
X137382285Y-102635047D01*
X137420380Y-102787428D01*
X137458476Y-102863619D01*
X137534666Y-102939809D01*
X137648952Y-102977904D01*
X137839428Y-102977904D01*
X137077523Y-102749333D02*
X136696571Y-102749333D01*
X137153714Y-102977904D02*
X136887047Y-102177904D01*
X136620380Y-102977904D01*
X144024285Y-97136000D02*
X144100476Y-97097904D01*
X144214761Y-97097904D01*
X144329047Y-97136000D01*
X144405238Y-97212190D01*
X144443333Y-97288380D01*
X144481428Y-97440761D01*
X144481428Y-97555047D01*
X144443333Y-97707428D01*
X144405238Y-97783619D01*
X144329047Y-97859809D01*
X144214761Y-97897904D01*
X144138571Y-97897904D01*
X144024285Y-97859809D01*
X143986190Y-97821714D01*
X143986190Y-97555047D01*
X144138571Y-97555047D01*
X143643333Y-97364571D02*
X143643333Y-97897904D01*
X143643333Y-97440761D02*
X143605238Y-97402666D01*
X143529047Y-97364571D01*
X143414761Y-97364571D01*
X143338571Y-97402666D01*
X143300476Y-97478857D01*
X143300476Y-97897904D01*
X142576666Y-97897904D02*
X142576666Y-97097904D01*
X142576666Y-97859809D02*
X142652857Y-97897904D01*
X142805238Y-97897904D01*
X142881428Y-97859809D01*
X142919523Y-97821714D01*
X142957619Y-97745523D01*
X142957619Y-97516952D01*
X142919523Y-97440761D01*
X142881428Y-97402666D01*
X142805238Y-97364571D01*
X142652857Y-97364571D01*
X142576666Y-97402666D01*
M02*
