%TF.GenerationSoftware,KiCad,Pcbnew,(6.0.5)*%
%TF.CreationDate,2025-09-07T14:18:53-04:00*%
%TF.ProjectId,inf_mirror_board_rev1,696e665f-6d69-4727-926f-725f626f6172,rev?*%
%TF.SameCoordinates,Original*%
%TF.FileFunction,Legend,Top*%
%TF.FilePolarity,Positive*%
%FSLAX46Y46*%
G04 Gerber Fmt 4.6, Leading zero omitted, Abs format (unit mm)*
G04 Created by KiCad (PCBNEW (6.0.5)) date 2025-09-07 14:18:53*
%MOMM*%
%LPD*%
G01*
G04 APERTURE LIST*
%ADD10C,0.130000*%
%ADD11C,0.100000*%
%ADD12C,0.150000*%
%ADD13C,0.127000*%
G04 APERTURE END LIST*
D10*
X133413619Y-90747809D02*
X133527904Y-90785904D01*
X133718380Y-90785904D01*
X133794571Y-90747809D01*
X133832666Y-90709714D01*
X133870761Y-90633523D01*
X133870761Y-90557333D01*
X133832666Y-90481142D01*
X133794571Y-90443047D01*
X133718380Y-90404952D01*
X133566000Y-90366857D01*
X133489809Y-90328761D01*
X133451714Y-90290666D01*
X133413619Y-90214476D01*
X133413619Y-90138285D01*
X133451714Y-90062095D01*
X133489809Y-90024000D01*
X133566000Y-89985904D01*
X133756476Y-89985904D01*
X133870761Y-90024000D01*
X134670761Y-90709714D02*
X134632666Y-90747809D01*
X134518380Y-90785904D01*
X134442190Y-90785904D01*
X134327904Y-90747809D01*
X134251714Y-90671619D01*
X134213619Y-90595428D01*
X134175523Y-90443047D01*
X134175523Y-90328761D01*
X134213619Y-90176380D01*
X134251714Y-90100190D01*
X134327904Y-90024000D01*
X134442190Y-89985904D01*
X134518380Y-89985904D01*
X134632666Y-90024000D01*
X134670761Y-90062095D01*
X135394571Y-90785904D02*
X135013619Y-90785904D01*
X135013619Y-89985904D01*
X133394571Y-88207809D02*
X133508857Y-88245904D01*
X133699333Y-88245904D01*
X133775523Y-88207809D01*
X133813619Y-88169714D01*
X133851714Y-88093523D01*
X133851714Y-88017333D01*
X133813619Y-87941142D01*
X133775523Y-87903047D01*
X133699333Y-87864952D01*
X133546952Y-87826857D01*
X133470761Y-87788761D01*
X133432666Y-87750666D01*
X133394571Y-87674476D01*
X133394571Y-87598285D01*
X133432666Y-87522095D01*
X133470761Y-87484000D01*
X133546952Y-87445904D01*
X133737428Y-87445904D01*
X133851714Y-87484000D01*
X134194571Y-88245904D02*
X134194571Y-87445904D01*
X134385047Y-87445904D01*
X134499333Y-87484000D01*
X134575523Y-87560190D01*
X134613619Y-87636380D01*
X134651714Y-87788761D01*
X134651714Y-87903047D01*
X134613619Y-88055428D01*
X134575523Y-88131619D01*
X134499333Y-88207809D01*
X134385047Y-88245904D01*
X134194571Y-88245904D01*
X134956476Y-88017333D02*
X135337428Y-88017333D01*
X134880285Y-88245904D02*
X135146952Y-87445904D01*
X135413619Y-88245904D01*
X134175619Y-102939809D02*
X134289904Y-102977904D01*
X134480380Y-102977904D01*
X134556571Y-102939809D01*
X134594666Y-102901714D01*
X134632761Y-102825523D01*
X134632761Y-102749333D01*
X134594666Y-102673142D01*
X134556571Y-102635047D01*
X134480380Y-102596952D01*
X134328000Y-102558857D01*
X134251809Y-102520761D01*
X134213714Y-102482666D01*
X134175619Y-102406476D01*
X134175619Y-102330285D01*
X134213714Y-102254095D01*
X134251809Y-102216000D01*
X134328000Y-102177904D01*
X134518476Y-102177904D01*
X134632761Y-102216000D01*
X135432761Y-102901714D02*
X135394666Y-102939809D01*
X135280380Y-102977904D01*
X135204190Y-102977904D01*
X135089904Y-102939809D01*
X135013714Y-102863619D01*
X134975619Y-102787428D01*
X134937523Y-102635047D01*
X134937523Y-102520761D01*
X134975619Y-102368380D01*
X135013714Y-102292190D01*
X135089904Y-102216000D01*
X135204190Y-102177904D01*
X135280380Y-102177904D01*
X135394666Y-102216000D01*
X135432761Y-102254095D01*
X136156571Y-102977904D02*
X135775619Y-102977904D01*
X135775619Y-102177904D01*
D11*
X134334666Y-82412833D02*
X134434666Y-82446166D01*
X134601333Y-82446166D01*
X134668000Y-82412833D01*
X134701333Y-82379500D01*
X134734666Y-82312833D01*
X134734666Y-82246166D01*
X134701333Y-82179500D01*
X134668000Y-82146166D01*
X134601333Y-82112833D01*
X134468000Y-82079500D01*
X134401333Y-82046166D01*
X134368000Y-82012833D01*
X134334666Y-81946166D01*
X134334666Y-81879500D01*
X134368000Y-81812833D01*
X134401333Y-81779500D01*
X134468000Y-81746166D01*
X134634666Y-81746166D01*
X134734666Y-81779500D01*
X135301333Y-82412833D02*
X135234666Y-82446166D01*
X135101333Y-82446166D01*
X135034666Y-82412833D01*
X135001333Y-82346166D01*
X135001333Y-82079500D01*
X135034666Y-82012833D01*
X135101333Y-81979500D01*
X135234666Y-81979500D01*
X135301333Y-82012833D01*
X135334666Y-82079500D01*
X135334666Y-82146166D01*
X135001333Y-82212833D01*
X135901333Y-82412833D02*
X135834666Y-82446166D01*
X135701333Y-82446166D01*
X135634666Y-82412833D01*
X135601333Y-82346166D01*
X135601333Y-82079500D01*
X135634666Y-82012833D01*
X135701333Y-81979500D01*
X135834666Y-81979500D01*
X135901333Y-82012833D01*
X135934666Y-82079500D01*
X135934666Y-82146166D01*
X135601333Y-82212833D01*
X136501333Y-82412833D02*
X136434666Y-82446166D01*
X136301333Y-82446166D01*
X136234666Y-82412833D01*
X136201333Y-82346166D01*
X136201333Y-82079500D01*
X136234666Y-82012833D01*
X136301333Y-81979500D01*
X136434666Y-81979500D01*
X136501333Y-82012833D01*
X136534666Y-82079500D01*
X136534666Y-82146166D01*
X136201333Y-82212833D01*
X137134666Y-82446166D02*
X137134666Y-81746166D01*
X137134666Y-82412833D02*
X137068000Y-82446166D01*
X136934666Y-82446166D01*
X136868000Y-82412833D01*
X136834666Y-82379500D01*
X136801333Y-82312833D01*
X136801333Y-82112833D01*
X136834666Y-82046166D01*
X136868000Y-82012833D01*
X136934666Y-81979500D01*
X137068000Y-81979500D01*
X137134666Y-82012833D01*
X137968000Y-82412833D02*
X138068000Y-82446166D01*
X138234666Y-82446166D01*
X138301333Y-82412833D01*
X138334666Y-82379500D01*
X138368000Y-82312833D01*
X138368000Y-82246166D01*
X138334666Y-82179500D01*
X138301333Y-82146166D01*
X138234666Y-82112833D01*
X138101333Y-82079500D01*
X138034666Y-82046166D01*
X138001333Y-82012833D01*
X137968000Y-81946166D01*
X137968000Y-81879500D01*
X138001333Y-81812833D01*
X138034666Y-81779500D01*
X138101333Y-81746166D01*
X138268000Y-81746166D01*
X138368000Y-81779500D01*
X138568000Y-81979500D02*
X138834666Y-81979500D01*
X138668000Y-81746166D02*
X138668000Y-82346166D01*
X138701333Y-82412833D01*
X138768000Y-82446166D01*
X138834666Y-82446166D01*
X139368000Y-81979500D02*
X139368000Y-82446166D01*
X139068000Y-81979500D02*
X139068000Y-82346166D01*
X139101333Y-82412833D01*
X139168000Y-82446166D01*
X139268000Y-82446166D01*
X139334666Y-82412833D01*
X139368000Y-82379500D01*
X140001333Y-82446166D02*
X140001333Y-81746166D01*
X140001333Y-82412833D02*
X139934666Y-82446166D01*
X139801333Y-82446166D01*
X139734666Y-82412833D01*
X139701333Y-82379500D01*
X139668000Y-82312833D01*
X139668000Y-82112833D01*
X139701333Y-82046166D01*
X139734666Y-82012833D01*
X139801333Y-81979500D01*
X139934666Y-81979500D01*
X140001333Y-82012833D01*
X140334666Y-82446166D02*
X140334666Y-81979500D01*
X140334666Y-81746166D02*
X140301333Y-81779500D01*
X140334666Y-81812833D01*
X140368000Y-81779500D01*
X140334666Y-81746166D01*
X140334666Y-81812833D01*
X140768000Y-82446166D02*
X140701333Y-82412833D01*
X140668000Y-82379500D01*
X140634666Y-82312833D01*
X140634666Y-82112833D01*
X140668000Y-82046166D01*
X140701333Y-82012833D01*
X140768000Y-81979500D01*
X140868000Y-81979500D01*
X140934666Y-82012833D01*
X140968000Y-82046166D01*
X141001333Y-82112833D01*
X141001333Y-82312833D01*
X140968000Y-82379500D01*
X140934666Y-82412833D01*
X140868000Y-82446166D01*
X140768000Y-82446166D01*
X133718000Y-82873166D02*
X134184666Y-83573166D01*
X134184666Y-82873166D02*
X133718000Y-83573166D01*
X134451333Y-83573166D02*
X134451333Y-82873166D01*
X134751333Y-83373166D02*
X135084666Y-83373166D01*
X134684666Y-83573166D02*
X134918000Y-82873166D01*
X135151333Y-83573166D01*
X135518000Y-82873166D02*
X135651333Y-82873166D01*
X135718000Y-82906500D01*
X135784666Y-82973166D01*
X135818000Y-83106500D01*
X135818000Y-83339833D01*
X135784666Y-83473166D01*
X135718000Y-83539833D01*
X135651333Y-83573166D01*
X135518000Y-83573166D01*
X135451333Y-83539833D01*
X135384666Y-83473166D01*
X135351333Y-83339833D01*
X135351333Y-83106500D01*
X135384666Y-82973166D01*
X135451333Y-82906500D01*
X135518000Y-82873166D01*
X136651333Y-83206500D02*
X136884666Y-83206500D01*
X136984666Y-83573166D02*
X136651333Y-83573166D01*
X136651333Y-82873166D01*
X136984666Y-82873166D01*
X137251333Y-83539833D02*
X137351333Y-83573166D01*
X137518000Y-83573166D01*
X137584666Y-83539833D01*
X137618000Y-83506500D01*
X137651333Y-83439833D01*
X137651333Y-83373166D01*
X137618000Y-83306500D01*
X137584666Y-83273166D01*
X137518000Y-83239833D01*
X137384666Y-83206500D01*
X137318000Y-83173166D01*
X137284666Y-83139833D01*
X137251333Y-83073166D01*
X137251333Y-83006500D01*
X137284666Y-82939833D01*
X137318000Y-82906500D01*
X137384666Y-82873166D01*
X137551333Y-82873166D01*
X137651333Y-82906500D01*
X137951333Y-83573166D02*
X137951333Y-82873166D01*
X138218000Y-82873166D01*
X138284666Y-82906500D01*
X138318000Y-82939833D01*
X138351333Y-83006500D01*
X138351333Y-83106500D01*
X138318000Y-83173166D01*
X138284666Y-83206500D01*
X138218000Y-83239833D01*
X137951333Y-83239833D01*
X139118000Y-82873166D02*
X139551333Y-82873166D01*
X139318000Y-83139833D01*
X139418000Y-83139833D01*
X139484666Y-83173166D01*
X139518000Y-83206500D01*
X139551333Y-83273166D01*
X139551333Y-83439833D01*
X139518000Y-83506500D01*
X139484666Y-83539833D01*
X139418000Y-83573166D01*
X139218000Y-83573166D01*
X139151333Y-83539833D01*
X139118000Y-83506500D01*
X139818000Y-82939833D02*
X139851333Y-82906500D01*
X139918000Y-82873166D01*
X140084666Y-82873166D01*
X140151333Y-82906500D01*
X140184666Y-82939833D01*
X140218000Y-83006500D01*
X140218000Y-83073166D01*
X140184666Y-83173166D01*
X139784666Y-83573166D01*
X140218000Y-83573166D01*
X140918000Y-83506500D02*
X140884666Y-83539833D01*
X140784666Y-83573166D01*
X140718000Y-83573166D01*
X140618000Y-83539833D01*
X140551333Y-83473166D01*
X140518000Y-83406500D01*
X140484666Y-83273166D01*
X140484666Y-83173166D01*
X140518000Y-83039833D01*
X140551333Y-82973166D01*
X140618000Y-82906500D01*
X140718000Y-82873166D01*
X140784666Y-82873166D01*
X140884666Y-82906500D01*
X140918000Y-82939833D01*
X141151333Y-82873166D02*
X141584666Y-82873166D01*
X141351333Y-83139833D01*
X141451333Y-83139833D01*
X141518000Y-83173166D01*
X141551333Y-83206500D01*
X141584666Y-83273166D01*
X141584666Y-83439833D01*
X141551333Y-83506500D01*
X141518000Y-83539833D01*
X141451333Y-83573166D01*
X141251333Y-83573166D01*
X141184666Y-83539833D01*
X141151333Y-83506500D01*
X133884666Y-84700166D02*
X133884666Y-84000166D01*
X134118000Y-84500166D01*
X134351333Y-84000166D01*
X134351333Y-84700166D01*
X134684666Y-84700166D02*
X134684666Y-84233500D01*
X134684666Y-84000166D02*
X134651333Y-84033500D01*
X134684666Y-84066833D01*
X134718000Y-84033500D01*
X134684666Y-84000166D01*
X134684666Y-84066833D01*
X135318000Y-84666833D02*
X135251333Y-84700166D01*
X135118000Y-84700166D01*
X135051333Y-84666833D01*
X135018000Y-84633500D01*
X134984666Y-84566833D01*
X134984666Y-84366833D01*
X135018000Y-84300166D01*
X135051333Y-84266833D01*
X135118000Y-84233500D01*
X135251333Y-84233500D01*
X135318000Y-84266833D01*
X135618000Y-84700166D02*
X135618000Y-84233500D01*
X135618000Y-84366833D02*
X135651333Y-84300166D01*
X135684666Y-84266833D01*
X135751333Y-84233500D01*
X135818000Y-84233500D01*
X136151333Y-84700166D02*
X136084666Y-84666833D01*
X136051333Y-84633500D01*
X136018000Y-84566833D01*
X136018000Y-84366833D01*
X136051333Y-84300166D01*
X136084666Y-84266833D01*
X136151333Y-84233500D01*
X136251333Y-84233500D01*
X136318000Y-84266833D01*
X136351333Y-84300166D01*
X136384666Y-84366833D01*
X136384666Y-84566833D01*
X136351333Y-84633500D01*
X136318000Y-84666833D01*
X136251333Y-84700166D01*
X136151333Y-84700166D01*
X136984666Y-84666833D02*
X136918000Y-84700166D01*
X136784666Y-84700166D01*
X136718000Y-84666833D01*
X136684666Y-84633500D01*
X136651333Y-84566833D01*
X136651333Y-84366833D01*
X136684666Y-84300166D01*
X136718000Y-84266833D01*
X136784666Y-84233500D01*
X136918000Y-84233500D01*
X136984666Y-84266833D01*
X137384666Y-84700166D02*
X137318000Y-84666833D01*
X137284666Y-84633500D01*
X137251333Y-84566833D01*
X137251333Y-84366833D01*
X137284666Y-84300166D01*
X137318000Y-84266833D01*
X137384666Y-84233500D01*
X137484666Y-84233500D01*
X137551333Y-84266833D01*
X137584666Y-84300166D01*
X137618000Y-84366833D01*
X137618000Y-84566833D01*
X137584666Y-84633500D01*
X137551333Y-84666833D01*
X137484666Y-84700166D01*
X137384666Y-84700166D01*
X137918000Y-84233500D02*
X137918000Y-84700166D01*
X137918000Y-84300166D02*
X137951333Y-84266833D01*
X138018000Y-84233500D01*
X138118000Y-84233500D01*
X138184666Y-84266833D01*
X138218000Y-84333500D01*
X138218000Y-84700166D01*
X138451333Y-84233500D02*
X138718000Y-84233500D01*
X138551333Y-84000166D02*
X138551333Y-84600166D01*
X138584666Y-84666833D01*
X138651333Y-84700166D01*
X138718000Y-84700166D01*
X138951333Y-84700166D02*
X138951333Y-84233500D01*
X138951333Y-84366833D02*
X138984666Y-84300166D01*
X139018000Y-84266833D01*
X139084666Y-84233500D01*
X139151333Y-84233500D01*
X139484666Y-84700166D02*
X139418000Y-84666833D01*
X139384666Y-84633500D01*
X139351333Y-84566833D01*
X139351333Y-84366833D01*
X139384666Y-84300166D01*
X139418000Y-84266833D01*
X139484666Y-84233500D01*
X139584666Y-84233500D01*
X139651333Y-84266833D01*
X139684666Y-84300166D01*
X139718000Y-84366833D01*
X139718000Y-84566833D01*
X139684666Y-84633500D01*
X139651333Y-84666833D01*
X139584666Y-84700166D01*
X139484666Y-84700166D01*
X140118000Y-84700166D02*
X140051333Y-84666833D01*
X140018000Y-84600166D01*
X140018000Y-84000166D01*
X140484666Y-84700166D02*
X140418000Y-84666833D01*
X140384666Y-84600166D01*
X140384666Y-84000166D01*
X141018000Y-84666833D02*
X140951333Y-84700166D01*
X140818000Y-84700166D01*
X140751333Y-84666833D01*
X140718000Y-84600166D01*
X140718000Y-84333500D01*
X140751333Y-84266833D01*
X140818000Y-84233500D01*
X140951333Y-84233500D01*
X141018000Y-84266833D01*
X141051333Y-84333500D01*
X141051333Y-84400166D01*
X140718000Y-84466833D01*
X141351333Y-84700166D02*
X141351333Y-84233500D01*
X141351333Y-84366833D02*
X141384666Y-84300166D01*
X141418000Y-84266833D01*
X141484666Y-84233500D01*
X141551333Y-84233500D01*
X135134666Y-85827166D02*
X135134666Y-85127166D01*
X135301333Y-85127166D01*
X135401333Y-85160500D01*
X135468000Y-85227166D01*
X135501333Y-85293833D01*
X135534666Y-85427166D01*
X135534666Y-85527166D01*
X135501333Y-85660500D01*
X135468000Y-85727166D01*
X135401333Y-85793833D01*
X135301333Y-85827166D01*
X135134666Y-85827166D01*
X136101333Y-85793833D02*
X136034666Y-85827166D01*
X135901333Y-85827166D01*
X135834666Y-85793833D01*
X135801333Y-85727166D01*
X135801333Y-85460500D01*
X135834666Y-85393833D01*
X135901333Y-85360500D01*
X136034666Y-85360500D01*
X136101333Y-85393833D01*
X136134666Y-85460500D01*
X136134666Y-85527166D01*
X135801333Y-85593833D01*
X136368000Y-85360500D02*
X136534666Y-85827166D01*
X136701333Y-85360500D01*
X137734666Y-85460500D02*
X137834666Y-85493833D01*
X137868000Y-85527166D01*
X137901333Y-85593833D01*
X137901333Y-85693833D01*
X137868000Y-85760500D01*
X137834666Y-85793833D01*
X137768000Y-85827166D01*
X137501333Y-85827166D01*
X137501333Y-85127166D01*
X137734666Y-85127166D01*
X137801333Y-85160500D01*
X137834666Y-85193833D01*
X137868000Y-85260500D01*
X137868000Y-85327166D01*
X137834666Y-85393833D01*
X137801333Y-85427166D01*
X137734666Y-85460500D01*
X137501333Y-85460500D01*
X138301333Y-85827166D02*
X138234666Y-85793833D01*
X138201333Y-85760500D01*
X138168000Y-85693833D01*
X138168000Y-85493833D01*
X138201333Y-85427166D01*
X138234666Y-85393833D01*
X138301333Y-85360500D01*
X138401333Y-85360500D01*
X138468000Y-85393833D01*
X138501333Y-85427166D01*
X138534666Y-85493833D01*
X138534666Y-85693833D01*
X138501333Y-85760500D01*
X138468000Y-85793833D01*
X138401333Y-85827166D01*
X138301333Y-85827166D01*
X139134666Y-85827166D02*
X139134666Y-85460500D01*
X139101333Y-85393833D01*
X139034666Y-85360500D01*
X138901333Y-85360500D01*
X138834666Y-85393833D01*
X139134666Y-85793833D02*
X139068000Y-85827166D01*
X138901333Y-85827166D01*
X138834666Y-85793833D01*
X138801333Y-85727166D01*
X138801333Y-85660500D01*
X138834666Y-85593833D01*
X138901333Y-85560500D01*
X139068000Y-85560500D01*
X139134666Y-85527166D01*
X139468000Y-85827166D02*
X139468000Y-85360500D01*
X139468000Y-85493833D02*
X139501333Y-85427166D01*
X139534666Y-85393833D01*
X139601333Y-85360500D01*
X139668000Y-85360500D01*
X140201333Y-85827166D02*
X140201333Y-85127166D01*
X140201333Y-85793833D02*
X140134666Y-85827166D01*
X140001333Y-85827166D01*
X139934666Y-85793833D01*
X139901333Y-85760500D01*
X139868000Y-85693833D01*
X139868000Y-85493833D01*
X139901333Y-85427166D01*
X139934666Y-85393833D01*
X140001333Y-85360500D01*
X140134666Y-85360500D01*
X140201333Y-85393833D01*
D12*
X145907142Y-96988380D02*
X145430952Y-96988380D01*
X145383333Y-97464571D01*
X145430952Y-97416952D01*
X145526190Y-97369333D01*
X145764285Y-97369333D01*
X145859523Y-97416952D01*
X145907142Y-97464571D01*
X145954761Y-97559809D01*
X145954761Y-97797904D01*
X145907142Y-97893142D01*
X145859523Y-97940761D01*
X145764285Y-97988380D01*
X145526190Y-97988380D01*
X145430952Y-97940761D01*
X145383333Y-97893142D01*
X146288095Y-97321714D02*
X146526190Y-97988380D01*
X146764285Y-97321714D01*
D10*
X136696571Y-102939809D02*
X136810857Y-102977904D01*
X137001333Y-102977904D01*
X137077523Y-102939809D01*
X137115619Y-102901714D01*
X137153714Y-102825523D01*
X137153714Y-102749333D01*
X137115619Y-102673142D01*
X137077523Y-102635047D01*
X137001333Y-102596952D01*
X136848952Y-102558857D01*
X136772761Y-102520761D01*
X136734666Y-102482666D01*
X136696571Y-102406476D01*
X136696571Y-102330285D01*
X136734666Y-102254095D01*
X136772761Y-102216000D01*
X136848952Y-102177904D01*
X137039428Y-102177904D01*
X137153714Y-102216000D01*
X137496571Y-102977904D02*
X137496571Y-102177904D01*
X137687047Y-102177904D01*
X137801333Y-102216000D01*
X137877523Y-102292190D01*
X137915619Y-102368380D01*
X137953714Y-102520761D01*
X137953714Y-102635047D01*
X137915619Y-102787428D01*
X137877523Y-102863619D01*
X137801333Y-102939809D01*
X137687047Y-102977904D01*
X137496571Y-102977904D01*
X138258476Y-102749333D02*
X138639428Y-102749333D01*
X138182285Y-102977904D02*
X138448952Y-102177904D01*
X138715619Y-102977904D01*
X132073714Y-102216000D02*
X131997523Y-102177904D01*
X131883238Y-102177904D01*
X131768952Y-102216000D01*
X131692761Y-102292190D01*
X131654666Y-102368380D01*
X131616571Y-102520761D01*
X131616571Y-102635047D01*
X131654666Y-102787428D01*
X131692761Y-102863619D01*
X131768952Y-102939809D01*
X131883238Y-102977904D01*
X131959428Y-102977904D01*
X132073714Y-102939809D01*
X132111809Y-102901714D01*
X132111809Y-102635047D01*
X131959428Y-102635047D01*
X132454666Y-102444571D02*
X132454666Y-102977904D01*
X132454666Y-102520761D02*
X132492761Y-102482666D01*
X132568952Y-102444571D01*
X132683238Y-102444571D01*
X132759428Y-102482666D01*
X132797523Y-102558857D01*
X132797523Y-102977904D01*
X133521333Y-102977904D02*
X133521333Y-102177904D01*
X133521333Y-102939809D02*
X133445142Y-102977904D01*
X133292761Y-102977904D01*
X133216571Y-102939809D01*
X133178476Y-102901714D01*
X133140380Y-102825523D01*
X133140380Y-102596952D01*
X133178476Y-102520761D01*
X133216571Y-102482666D01*
X133292761Y-102444571D01*
X133445142Y-102444571D01*
X133521333Y-102482666D01*
D11*
X143129238Y-103834380D02*
X143081619Y-103858190D01*
X142986380Y-103858190D01*
X142938761Y-103834380D01*
X142914952Y-103786761D01*
X142914952Y-103596285D01*
X142938761Y-103548666D01*
X142986380Y-103524857D01*
X143081619Y-103524857D01*
X143129238Y-103548666D01*
X143153047Y-103596285D01*
X143153047Y-103643904D01*
X142914952Y-103691523D01*
X143319714Y-103858190D02*
X143581619Y-103524857D01*
X143319714Y-103524857D02*
X143581619Y-103858190D01*
X143700666Y-103524857D02*
X143891142Y-103524857D01*
X143772095Y-103358190D02*
X143772095Y-103786761D01*
X143795904Y-103834380D01*
X143843523Y-103858190D01*
X143891142Y-103858190D01*
X144057809Y-103858190D02*
X144057809Y-103524857D01*
X144057809Y-103620095D02*
X144081619Y-103572476D01*
X144105428Y-103548666D01*
X144153047Y-103524857D01*
X144200666Y-103524857D01*
X144581619Y-103858190D02*
X144581619Y-103596285D01*
X144557809Y-103548666D01*
X144510190Y-103524857D01*
X144414952Y-103524857D01*
X144367333Y-103548666D01*
X144581619Y-103834380D02*
X144534000Y-103858190D01*
X144414952Y-103858190D01*
X144367333Y-103834380D01*
X144343523Y-103786761D01*
X144343523Y-103739142D01*
X144367333Y-103691523D01*
X144414952Y-103667714D01*
X144534000Y-103667714D01*
X144581619Y-103643904D01*
X145200666Y-103524857D02*
X145200666Y-104024857D01*
X145200666Y-103548666D02*
X145248285Y-103524857D01*
X145343523Y-103524857D01*
X145391142Y-103548666D01*
X145414952Y-103572476D01*
X145438761Y-103620095D01*
X145438761Y-103762952D01*
X145414952Y-103810571D01*
X145391142Y-103834380D01*
X145343523Y-103858190D01*
X145248285Y-103858190D01*
X145200666Y-103834380D01*
X145724476Y-103858190D02*
X145676857Y-103834380D01*
X145653047Y-103810571D01*
X145629238Y-103762952D01*
X145629238Y-103620095D01*
X145653047Y-103572476D01*
X145676857Y-103548666D01*
X145724476Y-103524857D01*
X145795904Y-103524857D01*
X145843523Y-103548666D01*
X145867333Y-103572476D01*
X145891142Y-103620095D01*
X145891142Y-103762952D01*
X145867333Y-103810571D01*
X145843523Y-103834380D01*
X145795904Y-103858190D01*
X145724476Y-103858190D01*
X146057809Y-103524857D02*
X146153047Y-103858190D01*
X146248285Y-103620095D01*
X146343523Y-103858190D01*
X146438761Y-103524857D01*
X146819714Y-103834380D02*
X146772095Y-103858190D01*
X146676857Y-103858190D01*
X146629238Y-103834380D01*
X146605428Y-103786761D01*
X146605428Y-103596285D01*
X146629238Y-103548666D01*
X146676857Y-103524857D01*
X146772095Y-103524857D01*
X146819714Y-103548666D01*
X146843523Y-103596285D01*
X146843523Y-103643904D01*
X146605428Y-103691523D01*
X147057809Y-103858190D02*
X147057809Y-103524857D01*
X147057809Y-103620095D02*
X147081619Y-103572476D01*
X147105428Y-103548666D01*
X147153047Y-103524857D01*
X147200666Y-103524857D01*
D12*
X129905142Y-102068380D02*
X129428952Y-102068380D01*
X129381333Y-102544571D01*
X129428952Y-102496952D01*
X129524190Y-102449333D01*
X129762285Y-102449333D01*
X129857523Y-102496952D01*
X129905142Y-102544571D01*
X129952761Y-102639809D01*
X129952761Y-102877904D01*
X129905142Y-102973142D01*
X129857523Y-103020761D01*
X129762285Y-103068380D01*
X129524190Y-103068380D01*
X129428952Y-103020761D01*
X129381333Y-102973142D01*
X130286095Y-102401714D02*
X130524190Y-103068380D01*
X130762285Y-102401714D01*
D10*
X142995714Y-97136000D02*
X142919523Y-97097904D01*
X142805238Y-97097904D01*
X142690952Y-97136000D01*
X142614761Y-97212190D01*
X142576666Y-97288380D01*
X142538571Y-97440761D01*
X142538571Y-97555047D01*
X142576666Y-97707428D01*
X142614761Y-97783619D01*
X142690952Y-97859809D01*
X142805238Y-97897904D01*
X142881428Y-97897904D01*
X142995714Y-97859809D01*
X143033809Y-97821714D01*
X143033809Y-97555047D01*
X142881428Y-97555047D01*
X143376666Y-97364571D02*
X143376666Y-97897904D01*
X143376666Y-97440761D02*
X143414761Y-97402666D01*
X143490952Y-97364571D01*
X143605238Y-97364571D01*
X143681428Y-97402666D01*
X143719523Y-97478857D01*
X143719523Y-97897904D01*
X144443333Y-97897904D02*
X144443333Y-97097904D01*
X144443333Y-97859809D02*
X144367142Y-97897904D01*
X144214761Y-97897904D01*
X144138571Y-97859809D01*
X144100476Y-97821714D01*
X144062380Y-97745523D01*
X144062380Y-97516952D01*
X144100476Y-97440761D01*
X144138571Y-97402666D01*
X144214761Y-97364571D01*
X144367142Y-97364571D01*
X144443333Y-97402666D01*
D12*
%TO.C,*%
%TO.C,LEDs*%
X136366380Y-98496380D02*
X135890190Y-98496380D01*
X135890190Y-97496380D01*
X136699714Y-97972571D02*
X137033047Y-97972571D01*
X137175904Y-98496380D02*
X136699714Y-98496380D01*
X136699714Y-97496380D01*
X137175904Y-97496380D01*
X137604476Y-98496380D02*
X137604476Y-97496380D01*
X137842571Y-97496380D01*
X137985428Y-97544000D01*
X138080666Y-97639238D01*
X138128285Y-97734476D01*
X138175904Y-97924952D01*
X138175904Y-98067809D01*
X138128285Y-98258285D01*
X138080666Y-98353523D01*
X137985428Y-98448761D01*
X137842571Y-98496380D01*
X137604476Y-98496380D01*
X138556857Y-98448761D02*
X138652095Y-98496380D01*
X138842571Y-98496380D01*
X138937809Y-98448761D01*
X138985428Y-98353523D01*
X138985428Y-98305904D01*
X138937809Y-98210666D01*
X138842571Y-98163047D01*
X138699714Y-98163047D01*
X138604476Y-98115428D01*
X138556857Y-98020190D01*
X138556857Y-97972571D01*
X138604476Y-97877333D01*
X138699714Y-97829714D01*
X138842571Y-97829714D01*
X138937809Y-97877333D01*
%TO.C,*%
%TO.C,U1*%
X138364666Y-75598166D02*
X138364666Y-76164833D01*
X138398000Y-76231500D01*
X138431333Y-76264833D01*
X138498000Y-76298166D01*
X138631333Y-76298166D01*
X138698000Y-76264833D01*
X138731333Y-76231500D01*
X138764666Y-76164833D01*
X138764666Y-75598166D01*
X139464666Y-76298166D02*
X139064666Y-76298166D01*
X139264666Y-76298166D02*
X139264666Y-75598166D01*
X139198000Y-75698166D01*
X139131333Y-75764833D01*
X139064666Y-75798166D01*
%TO.C,Accel*%
X139438285Y-105576666D02*
X139914476Y-105576666D01*
X139343047Y-105862380D02*
X139676380Y-104862380D01*
X140009714Y-105862380D01*
X140771619Y-105814761D02*
X140676380Y-105862380D01*
X140485904Y-105862380D01*
X140390666Y-105814761D01*
X140343047Y-105767142D01*
X140295428Y-105671904D01*
X140295428Y-105386190D01*
X140343047Y-105290952D01*
X140390666Y-105243333D01*
X140485904Y-105195714D01*
X140676380Y-105195714D01*
X140771619Y-105243333D01*
X141628761Y-105814761D02*
X141533523Y-105862380D01*
X141343047Y-105862380D01*
X141247809Y-105814761D01*
X141200190Y-105767142D01*
X141152571Y-105671904D01*
X141152571Y-105386190D01*
X141200190Y-105290952D01*
X141247809Y-105243333D01*
X141343047Y-105195714D01*
X141533523Y-105195714D01*
X141628761Y-105243333D01*
X142438285Y-105814761D02*
X142343047Y-105862380D01*
X142152571Y-105862380D01*
X142057333Y-105814761D01*
X142009714Y-105719523D01*
X142009714Y-105338571D01*
X142057333Y-105243333D01*
X142152571Y-105195714D01*
X142343047Y-105195714D01*
X142438285Y-105243333D01*
X142485904Y-105338571D01*
X142485904Y-105433809D01*
X142009714Y-105529047D01*
X143057333Y-105862380D02*
X142962095Y-105814761D01*
X142914476Y-105719523D01*
X142914476Y-104862380D01*
D11*
%TO.C,LEDs*%
X139446000Y-100884000D02*
X139446000Y-97836000D01*
X147828000Y-100884000D02*
X139446000Y-100884000D01*
X147828000Y-97836000D02*
X147828000Y-100884000D01*
D13*
%TO.C,U1*%
X134404000Y-80721500D02*
X134404000Y-74965500D01*
X143403000Y-80721500D02*
X134404000Y-80721500D01*
X146518000Y-74965500D02*
X129246000Y-74965500D01*
X128484000Y-75469250D02*
X128484000Y-95797750D01*
X143403000Y-74965500D02*
X143403000Y-80721500D01*
X129246000Y-74965500D02*
X128484000Y-75469250D01*
X146772000Y-95793500D02*
X146772000Y-74965500D01*
X128484000Y-95797750D02*
X146772000Y-95793500D01*
D11*
%TO.C,Accel*%
X128584000Y-103332000D02*
X128584000Y-106126000D01*
X138998000Y-106126000D02*
X138998000Y-103332000D01*
X138998000Y-103332000D02*
X128584000Y-103332000D01*
%TD*%
M02*
