%TF.GenerationSoftware,KiCad,Pcbnew,(6.0.5)*%
%TF.CreationDate,2025-09-07T14:18:53-04:00*%
%TF.ProjectId,inf_mirror_board_rev1,696e665f-6d69-4727-926f-725f626f6172,rev?*%
%TF.SameCoordinates,Original*%
%TF.FileFunction,Copper,L2,Bot*%
%TF.FilePolarity,Positive*%
%FSLAX46Y46*%
G04 Gerber Fmt 4.6, Leading zero omitted, Abs format (unit mm)*
G04 Created by KiCad (PCBNEW (6.0.5)) date 2025-09-07 14:18:53*
%MOMM*%
%LPD*%
G01*
G04 APERTURE LIST*
G04 Aperture macros list*
%AMRoundRect*
0 Rectangle with rounded corners*
0 $1 Rounding radius*
0 $2 $3 $4 $5 $6 $7 $8 $9 X,Y pos of 4 corners*
0 Add a 4 corners polygon primitive as box body*
4,1,4,$2,$3,$4,$5,$6,$7,$8,$9,$2,$3,0*
0 Add four circle primitives for the rounded corners*
1,1,$1+$1,$2,$3*
1,1,$1+$1,$4,$5*
1,1,$1+$1,$6,$7*
1,1,$1+$1,$8,$9*
0 Add four rect primitives between the rounded corners*
20,1,$1+$1,$2,$3,$4,$5,0*
20,1,$1+$1,$4,$5,$6,$7,0*
20,1,$1+$1,$6,$7,$8,$9,0*
20,1,$1+$1,$8,$9,$2,$3,0*%
G04 Aperture macros list end*
%TA.AperFunction,ComponentPad*%
%ADD10C,1.524000*%
%TD*%
%TA.AperFunction,ComponentPad*%
%ADD11RoundRect,0.250000X0.600000X0.725000X-0.600000X0.725000X-0.600000X-0.725000X0.600000X-0.725000X0*%
%TD*%
%TA.AperFunction,ComponentPad*%
%ADD12O,1.700000X1.950000*%
%TD*%
%TA.AperFunction,ComponentPad*%
%ADD13RoundRect,0.250000X-0.600000X-0.725000X0.600000X-0.725000X0.600000X0.725000X-0.600000X0.725000X0*%
%TD*%
%TA.AperFunction,Conductor*%
%ADD14C,0.250000*%
%TD*%
G04 APERTURE END LIST*
D10*
%TO.P,,6,PA9_A5_D5_SCL*%
%TO.N,Net-(U1-Pad6)*%
X132080000Y-90424000D03*
%TD*%
%TO.P,,5,PA8_A4_D4_SDA*%
%TO.N,Net-(U1-Pad5)*%
X132080000Y-87884000D03*
%TD*%
%TO.P,,7,PB08_A6_D6_TX*%
%TO.N,unconnected-(U1-Pad7)*%
X132080000Y-92964000D03*
%TD*%
D11*
%TO.P,,1,vcc*%
%TO.N,Net-(U1-Pad14)*%
X146050000Y-102108000D03*
%TD*%
D10*
%TO.P,,3,PA10_A2_D2*%
%TO.N,unconnected-(U1-Pad3)*%
X132080000Y-82804000D03*
%TD*%
%TO.P,,8,PB09_A7_D7_RX*%
%TO.N,unconnected-(U1-Pad8)*%
X143256000Y-92964000D03*
%TD*%
%TO.P,,1,PA02_A0_D0*%
%TO.N,unconnected-(U1-Pad1)*%
X132080000Y-77724000D03*
%TD*%
D12*
%TO.P,LEDs,3,Din*%
%TO.N,Net-(U1-Pad2)*%
X141050000Y-99360000D03*
%TO.P,LEDs,2,Gnd*%
%TO.N,Net-(U1-Pad13)*%
X143550000Y-99360000D03*
D11*
%TO.P,LEDs,1,vcc*%
%TO.N,Net-(U1-Pad14)*%
X146050000Y-99360000D03*
%TD*%
D10*
%TO.P,,12,3V3*%
%TO.N,unconnected-(U1-Pad12)*%
X143256000Y-82804000D03*
%TD*%
D12*
%TO.P,,2,Gnd*%
%TO.N,Net-(U1-Pad13)*%
X143550000Y-102108000D03*
%TD*%
D10*
%TO.P,,9,PA7_A8_D8_SCK*%
%TO.N,unconnected-(U1-Pad9)*%
X143256000Y-90424000D03*
%TD*%
%TO.P,,10,PA5_A9_D9_MISO*%
%TO.N,unconnected-(U1-Pad10)*%
X143256000Y-87884000D03*
%TD*%
%TO.P,,4,PA11_A3_D3*%
%TO.N,unconnected-(U1-Pad4)*%
X132080000Y-85344000D03*
%TD*%
%TO.P,,11,PA6_A10_D10_MOSI*%
%TO.N,unconnected-(U1-Pad11)*%
X143256000Y-85344000D03*
%TD*%
%TO.P,U1,14,5V*%
%TO.N,Net-(U1-Pad14)*%
X145248000Y-77673500D03*
%TO.P,U1,13,GND*%
%TO.N,Net-(U1-Pad13)*%
X145248000Y-80213500D03*
%TO.P,U1,12,3V3*%
%TO.N,unconnected-(U1-Pad12)*%
X145248000Y-82753500D03*
%TO.P,U1,11,PA6_A10_D10_MOSI*%
%TO.N,unconnected-(U1-Pad11)*%
X145248000Y-85293500D03*
%TO.P,U1,10,PA5_A9_D9_MISO*%
%TO.N,unconnected-(U1-Pad10)*%
X145248000Y-87833500D03*
%TO.P,U1,9,PA7_A8_D8_SCK*%
%TO.N,unconnected-(U1-Pad9)*%
X145248000Y-90373500D03*
%TO.P,U1,8,PB09_A7_D7_RX*%
%TO.N,unconnected-(U1-Pad8)*%
X145248000Y-92913500D03*
%TO.P,U1,7,PB08_A6_D6_TX*%
%TO.N,unconnected-(U1-Pad7)*%
X130008000Y-92913500D03*
%TO.P,U1,6,PA9_A5_D5_SCL*%
%TO.N,Net-(U1-Pad6)*%
X130008000Y-90373500D03*
%TO.P,U1,5,PA8_A4_D4_SDA*%
%TO.N,Net-(U1-Pad5)*%
X130008000Y-87833500D03*
%TO.P,U1,4,PA11_A3_D3*%
%TO.N,unconnected-(U1-Pad4)*%
X130008000Y-85293500D03*
%TO.P,U1,3,PA10_A2_D2*%
%TO.N,unconnected-(U1-Pad3)*%
X130008000Y-82753500D03*
%TO.P,U1,2,PA4_A1_D1*%
%TO.N,Net-(U1-Pad2)*%
X130008000Y-80213500D03*
%TO.P,U1,1,PA02_A0_D0*%
%TO.N,unconnected-(U1-Pad1)*%
X130008000Y-77673500D03*
%TD*%
D12*
%TO.P,Accel,4,SDA*%
%TO.N,Net-(U1-Pad5)*%
X137608000Y-104856000D03*
%TO.P,Accel,3,SCL*%
%TO.N,Net-(U1-Pad6)*%
X135108000Y-104856000D03*
%TO.P,Accel,2,Gnd*%
%TO.N,Net-(U1-Pad13)*%
X132608000Y-104856000D03*
D13*
%TO.P,Accel,1,Vcc*%
%TO.N,Net-(U1-Pad14)*%
X130108000Y-104856000D03*
%TD*%
D14*
%TO.N,Net-(U1-Pad14)*%
X136903520Y-98060480D02*
X130108000Y-104856000D01*
X144750480Y-98060480D02*
X136903520Y-98060480D01*
X146050000Y-99360000D02*
X144750480Y-98060480D01*
%TO.N,Net-(U1-Pad13)*%
X135356000Y-102108000D02*
X132608000Y-104856000D01*
X143550000Y-102108000D02*
X135356000Y-102108000D01*
%TD*%
M02*
